<svg xmlns="http://www.w3.org/2000/svg" xmlns:xlink="http://www.w3.org/1999/xlink" width="48" height="48" viewBox="0 0 48 48">
  <defs>
    <path id="help-a" d="M6.07407407,24 C6.07407407,14.1154815 14.1154815,6.07407407 24,6.07407407 C33.8845185,6.07407407 41.9259259,14.1154815 41.9259259,24 C41.9259259,33.8845185 33.8845185,41.9259259 24,41.9259259 C14.1154815,41.9259259 6.07407407,33.8845185 6.07407407,24 Z M24,4.44444444 C34.7824444,4.44444444 43.5555556,13.2175556 43.5555556,24 C43.5555556,34.7824444 34.7824444,43.5555556 24,43.5555556 C13.2175556,43.5555556 4.44444444,34.7824444 4.44444444,24 C4.44444444,13.2175556 13.2175556,4.44444444 24,4.44444444 Z M24,31.3333333 C23.0996296,31.3333333 22.3703704,32.0634074 22.3703704,32.962963 C22.3703704,33.8625185 23.0996296,34.5925926 24,34.5925926 C24.9003704,34.5925926 25.6296296,33.8625185 25.6296296,32.962963 C25.6296296,32.0634074 24.9003704,31.3333333 24,31.3333333 Z M20.1964444,14.8642148 C18.9888889,15.9454741 18.2962963,17.4887333 18.2962963,19.118363 L19.9259259,19.118363 C19.9259259,18.3035481 20.4205185,16.8507333 21.2834074,16.0782889 C22.1577037,15.2960667 23.2902963,14.9359185 24.4668889,15.0654741 C26.3360741,15.2716222 27.8418519,16.7765852 28.048,18.6449556 C28.2280741,20.2729556 27.6324444,21.846363 26.2171111,22.6530296 C24.4717778,23.6495481 23.5893333,25.5448074 23.5893333,27.5997704 L23.5893333,28.8961407 L25.218963,28.8961407 L25.218963,27.5997704 C25.218963,26.1282148 25.7860741,24.7748074 27.0245926,24.068363 C29.0045926,22.9390296 30.0198519,20.7398444 29.7697037,18.4656963 C29.4796296,15.844437 27.2665926,13.732437 24.6461481,13.4431778 C23.0254815,13.2655481 21.4031852,13.7845852 20.1964444,14.8642148 Z"/>
  </defs>
  <use fill="#1F1F1F" fill-rule="evenodd" xlink:href="#help-a"/>
</svg>
