<?xml version="1.0" encoding="UTF-8"?>
<svg width="48px" height="48px" viewBox="0 0 48 48" version="1.1" xmlns="http://www.w3.org/2000/svg" xmlns:xlink="http://www.w3.org/1999/xlink">
    <!-- Generator: Sketch 64 (93537) - https://sketch.com -->
    <title>RHYME/SHAPES/48x48/Leave session</title>
    <desc>Created with Sketch.</desc>
    <g id="RHYME/SHAPES/48x48/Leave-session" stroke="none" stroke-width="1" fill="none" fill-rule="evenodd">
        <g id="Group-6" transform="translate(7.000000, 5.000000)" fill="#1F1F1F">
            <path d="M16.6445,38.0576 C7.4665,38.0576 -0.0005,30.7796 -0.0005,21.8326 C-0.0005,14.7816 4.6825,8.5766 11.6515,6.3916 C12.0475,6.2666 12.4675,6.4876 12.5915,6.8826 C12.7155,7.2786 12.4955,7.6996 12.1005,7.8236 C5.7595,9.8106 1.4995,15.4406 1.4995,21.8326 C1.4995,29.9526 8.2935,36.5576 16.6445,36.5576 C24.9955,36.5576 31.7895,29.9526 31.7895,21.8326 C31.7895,15.4406 27.5295,9.8096 21.1885,7.8236 C20.7935,7.6996 20.5735,7.2786 20.6975,6.8826 C20.8215,6.4876 21.2375,6.2666 21.6375,6.3916 C28.6065,8.5756 33.2895,14.7816 33.2895,21.8326 C33.2895,30.7796 25.8225,38.0576 16.6445,38.0576" id="Fill-1"></path>
            <path d="M16.6445,14.2158 C16.2305,14.2158 15.8945,13.8798 15.8945,13.4658 L15.8945,0.7498 C15.8945,0.3358 16.2305,-0.0002 16.6445,-0.0002 C17.0585,-0.0002 17.3945,0.3358 17.3945,0.7498 L17.3945,13.4658 C17.3945,13.8798 17.0585,14.2158 16.6445,14.2158" id="Fill-4"></path>
        </g>
    </g>
</svg>