<svg xmlns="http://www.w3.org/2000/svg" xmlns:xlink="http://www.w3.org/1999/xlink" width="48" height="48" viewBox="0 0 48 48">
  <defs>
    <path id="setting-a" d="M22.1496296,40.2962963 L25.8459259,40.2962963 L26.0140741,37.9814815 C26.1192593,36.5459259 27.0162963,35.2651852 28.3103704,34.6874074 L28.457037,34.6140741 C29.8244444,34.0466667 31.3718519,34.2925926 32.4911111,35.2585185 L34.2155556,36.7451852 L36.8311111,34.1281481 L35.3437037,32.4037037 C34.3740741,31.2814815 34.1259259,29.7333333 34.6955556,28.3622222 C35.2748148,26.9540741 36.5451852,26.0348148 38.0259259,25.9259259 L40.2962963,25.7585185 L40.2962963,22.0607407 L38.0259259,21.8940741 C36.5459259,21.7851852 35.2748148,20.8666667 34.7111111,19.4955556 C34.1259259,18.0874074 34.3733333,16.5385185 35.3422222,15.417037 L36.8303704,13.6918519 L34.2155556,11.077037 L32.4903704,12.5659259 C31.3696296,13.5348148 29.8214815,13.7822222 28.4511111,13.2148148 C27.0407407,12.6348148 26.1207407,11.3822222 26.0140741,9.92888889 L25.8474074,7.7037037 L22.1481481,7.7037037 L21.9814815,9.93333333 C21.8748148,11.3985185 20.9562963,12.6592593 19.5851852,13.2244444 L19.4311111,13.2881481 L19.3985185,13.2866667 C18.0644444,13.7762963 16.5896296,13.5081481 15.5081481,12.5740741 L13.7807407,11.0807407 L11.1666667,13.6940741 L12.6585185,15.4222222 C13.6266667,16.5444444 13.8748148,18.0918519 13.3066667,19.4614815 C12.7281481,20.8659259 11.4577778,21.7851852 9.97703704,21.8933333 L7.7037037,22.0607407 L7.7037037,25.7585185 L9.97555556,25.9259259 C11.4562963,26.0348148 12.7266667,26.9540741 13.2911111,28.3259259 C13.8740741,29.7318519 13.6251852,31.2792593 12.657037,32.4007407 L11.1659259,34.1274074 L13.7807407,36.7422222 L15.5074074,35.2518519 C16.6288889,34.2844444 18.177037,34.0362963 19.5466667,34.6044444 C20.9311111,35.1740741 21.8725926,36.4925926 21.9822222,37.98 L22.1496296,40.2962963 Z M27.2244444,41.7777778 L20.7711111,41.7777778 L20.5044444,38.0874074 C20.4362963,37.1562963 19.8533333,36.3325926 19.0192593,35.9896296 C18.1288889,35.6207407 17.1696296,35.7740741 16.4748148,36.3740741 L13.7066667,38.762963 L9.14518519,34.2007407 L11.5355556,31.4325926 C12.1355556,30.7377778 12.2888889,29.7785185 11.9362963,28.9281481 C11.5718519,28.04 10.7844444,27.4711111 9.86740741,27.402963 L6.22222222,27.1348148 L6.22222222,20.6837037 L9.86814815,20.4162963 C10.7859259,20.3488889 11.5733333,19.78 11.9222222,18.9303704 C12.2903704,18.0444444 12.1362963,17.0851852 11.537037,16.3903704 L9.14518519,13.62 L13.7081481,9.05925926 L16.477037,11.4533333 C17.1748148,12.0555556 18.1362963,12.3881481 18.9822222,12.0362963 L19.1377778,12.1481481 L19.1525926,12.1481481 C19.9311111,11.4074074 20.4422222,10.8533333 20.5044444,10.0007407 L20.7725926,6.22222222 L27.222963,6.22222222 L27.4911111,9.82 C27.5577778,10.722963 28.1133333,11.4740741 28.977037,11.8288889 C29.8681481,12.1985185 30.8281481,12.0444444 31.5222222,11.4451852 L34.2888889,9.0562963 L38.8511111,13.6177778 L36.4637037,16.3844444 C35.8637037,17.08 35.7103704,18.0392593 36.062963,18.8888889 C36.4303704,19.78 37.217037,20.3488889 38.1348148,20.4162963 L41.7777778,20.6837037 L41.7777778,27.1348148 L38.1340741,27.402963 C37.217037,27.4703704 36.4303704,28.0392593 36.0814815,28.8881481 C35.7103704,29.7807407 35.8644444,30.7407407 36.4644444,31.4362963 L38.8525926,34.2022222 L34.2911111,38.7651852 L31.5237037,36.3807407 C30.8562963,35.8044444 29.94,35.6437037 29.1111111,35.9488889 L28.9807407,36.0118519 C28.1422222,36.3562963 27.5592593,37.1711111 27.4911111,38.0888889 L27.2244444,41.7777778 Z M24,19.5555556 C21.5488889,19.5555556 19.5555556,21.5496296 19.5555556,24 C19.5555556,26.4503704 21.5488889,28.4444444 24,28.4444444 C26.4511111,28.4444444 28.4444444,26.4503704 28.4444444,24 C28.4444444,21.5496296 26.4511111,19.5555556 24,19.5555556 M24,29.9259259 C20.7325926,29.9259259 18.0740741,27.2674074 18.0740741,24 C18.0740741,20.7325926 20.7325926,18.0740741 24,18.0740741 C27.2674074,18.0740741 29.9259259,20.7325926 29.9259259,24 C29.9259259,27.2674074 27.2674074,29.9259259 24,29.9259259"/>
  </defs>
  <use fill="#1F1F1F" fill-rule="evenodd" xlink:href="#setting-a"/>
</svg>
