<svg xmlns="http://www.w3.org/2000/svg" xmlns:xlink="http://www.w3.org/1999/xlink" width="48" height="48" viewBox="0 0 48 48">
  <defs>
    <path id="stackedfile-a" d="M34.9473684,4 L34.9473684,8.99916667 L40,8.99916667 L40,44 L13.0526316,44 L13.0526316,38.9991667 L8,38.9991667 L8,4 L34.9473684,4 Z M38.3157895,10.6666667 L14.7368421,10.6666667 L14.7368421,42.3333333 L38.3157895,42.3333333 L38.3157895,10.6666667 Z M33.2631579,5.66666667 L9.68421053,5.66666667 L9.68421053,37.3333333 L13.0526316,37.3333333 L13.0526316,8.99916667 L33.2631579,8.99916667 L33.2631579,5.66666667 Z M29.0526316,32.3330833 L29.0526316,33.99975 L20.6315789,33.99975 L20.6315789,32.3330833 L29.0526316,32.3330833 Z M32.4210526,25.6664167 L32.4210526,27.3330833 L20.6315789,27.3330833 L20.6315789,25.6664167 L32.4210526,25.6664167 Z M32.4210526,18.99975 L32.4210526,20.6664167 L20.6315789,20.6664167 L20.6315789,18.99975 L32.4210526,18.99975 Z"/>
  </defs>
  <use fill="#1F1F1F" fill-rule="evenodd" xlink:href="#stackedfile-a"/>
</svg>
